<svg width="145" height="33" viewBox="0 0 145 33" fill="none" xmlns="http://www.w3.org/2000/svg">
<path d="M50.0593 24.8868C48.8566 24.8868 47.7218 24.7284 46.6325 24.4116C45.5432 24.0948 44.6581 23.6874 44 23.1669L45.1574 20.587C45.7928 21.0396 46.5417 21.4017 47.4268 21.6959C48.2892 21.9901 49.1743 22.1259 50.082 22.1259C50.7629 22.1259 51.3075 22.058 51.7387 21.9222C52.1472 21.7864 52.4649 21.6054 52.6692 21.3564C52.8734 21.1075 52.9642 20.8359 52.9642 20.5191C52.9642 20.1344 52.8053 19.8175 52.4876 19.5686C52.1699 19.3423 51.7614 19.1386 51.2621 19.0028C50.7402 18.8444 50.1955 18.7086 49.5601 18.5728C48.9473 18.4371 48.3346 18.2786 47.6992 18.075C47.0864 17.8713 46.5191 17.6223 45.9971 17.3055C45.4751 16.9887 45.0666 16.5813 44.7489 16.0834C44.4312 15.5629 44.2723 14.9293 44.2723 14.1372C44.2723 13.2772 44.4993 12.5078 44.9532 11.8062C45.407 11.1047 46.1106 10.5389 47.041 10.1315C47.9715 9.72418 49.1289 9.49787 50.5359 9.49787C51.4664 9.49787 52.3968 9.61103 53.3046 9.83734C54.2124 10.0636 55.0067 10.3805 55.7102 10.8331L54.6436 13.4356C53.9401 13.0509 53.2592 12.7567 52.5557 12.553C51.8522 12.372 51.1714 12.2588 50.5132 12.2588C49.8551 12.2588 49.3104 12.3267 48.8792 12.4851C48.4481 12.6436 48.153 12.8472 47.9715 13.0962C47.7899 13.3451 47.6992 13.6393 47.6992 13.9561C47.6992 14.3409 47.858 14.6351 48.1757 14.884C48.4934 15.1103 48.9019 15.314 49.4012 15.4498C49.9232 15.5856 50.4678 15.744 51.1033 15.8798C51.716 16.0156 52.3288 16.174 52.9642 16.3776C53.5769 16.5587 54.1443 16.8076 54.6663 17.1245C55.1882 17.4413 55.5967 17.8486 55.9144 18.3465C56.2322 18.8444 56.391 19.5007 56.391 20.2701C56.391 21.1075 56.1641 21.8769 55.6875 22.5559C55.2109 23.2574 54.5301 23.8006 53.5996 24.2305C52.6465 24.6832 51.4664 24.8868 50.0593 24.8868Z" fill="#3A4752"/>
<path d="M62.1553 21.8769H70.2572V24.6379H58.7285V9.79207H69.9848V12.553H62.1553V21.8769ZM61.9057 15.7666H69.0771V18.4371H61.9057V15.7666Z" fill="#3A4752"/>
<path d="M80.2426 24.8868C79.0625 24.8868 77.9732 24.7058 76.9746 24.3211C75.9761 23.9363 75.1137 23.3932 74.3875 22.7143C73.6613 22.0127 73.0939 21.198 72.6854 20.2702C72.2769 19.3423 72.0727 18.3239 72.0727 17.215C72.0727 16.1061 72.2769 15.0877 72.6854 14.1598C73.0939 13.232 73.6613 12.4173 74.3875 11.7157C75.1137 11.0141 75.9988 10.4936 76.9746 10.1089C77.9732 9.72418 79.0398 9.54314 80.2199 9.54314C81.4 9.54314 82.4893 9.72418 83.4652 10.1089C84.441 10.4936 85.3034 11.0368 86.0296 11.7157C86.7558 12.4173 87.3232 13.2093 87.7317 14.1372C88.1402 15.0651 88.3444 16.0834 88.3444 17.215C88.3444 18.3239 88.1402 19.3423 87.7317 20.2928C87.3232 21.2433 86.7558 22.058 86.0296 22.7369C85.3034 23.4158 84.441 23.959 83.4652 24.3437C82.4893 24.7058 81.4227 24.8868 80.2426 24.8868ZM80.2199 21.9675C80.878 21.9675 81.4908 21.8543 82.0581 21.628C82.6255 21.4017 83.1021 21.0849 83.5333 20.6549C83.9645 20.2249 84.2822 19.727 84.5318 19.1386C84.7587 18.5502 84.8722 17.9165 84.8722 17.215C84.8722 16.5134 84.7587 15.8571 84.5318 15.2914C84.3049 14.703 83.9645 14.2051 83.556 13.7751C83.1475 13.3451 82.6482 13.0283 82.0808 12.802C81.5135 12.5757 80.9007 12.4625 80.2199 12.4625C79.5618 12.4625 78.949 12.5757 78.3817 12.802C77.8143 13.0283 77.3377 13.3451 76.9066 13.7751C76.4754 14.2051 76.1577 14.703 75.908 15.2914C75.6811 15.8798 75.5676 16.5134 75.5676 17.215C75.5676 17.9165 75.6811 18.5502 75.908 19.1386C76.135 19.727 76.4754 20.2249 76.8839 20.6549C77.2924 21.0849 77.7916 21.4017 78.359 21.628C78.949 21.8543 79.5618 21.9675 80.2199 21.9675Z" fill="#3A4752"/>
<path d="M90.977 24.6379V9.79207H97.7398C99.3511 9.79207 100.781 10.1089 102.006 10.7199C103.232 11.331 104.208 12.1909 104.911 13.2999C105.615 14.4088 105.955 15.7214 105.955 17.215C105.955 18.7086 105.615 20.0212 104.911 21.1301C104.208 22.239 103.255 23.099 102.006 23.71C100.781 24.3211 99.3511 24.6379 97.7398 24.6379H90.977ZM94.4265 21.809H97.581C98.5795 21.809 99.4419 21.628 100.168 21.2433C100.894 20.8586 101.462 20.338 101.87 19.6365C102.279 18.9349 102.483 18.1202 102.483 17.1924C102.483 16.2419 102.279 15.4272 101.87 14.7482C101.462 14.0693 100.894 13.5262 100.168 13.1641C99.4419 12.7793 98.5795 12.5983 97.581 12.5983H94.4265V21.809Z" fill="#3A4752"/>
<path d="M111.856 24.8189C110.971 24.8189 110.199 24.6605 109.563 24.3663C108.928 24.0721 108.429 23.6421 108.088 23.1216C107.748 22.6011 107.566 22.0127 107.566 21.3564C107.566 20.6775 107.725 20.0891 108.066 19.5686C108.406 19.0481 108.928 18.6634 109.654 18.3692C110.38 18.075 111.311 17.9392 112.491 17.9392H115.532V19.8628H112.854C112.083 19.8628 111.538 19.9986 111.243 20.2475C110.948 20.4965 110.812 20.8133 110.812 21.198C110.812 21.628 110.971 21.9675 111.311 22.2164C111.651 22.4653 112.105 22.5785 112.673 22.5785C113.217 22.5785 113.717 22.4427 114.17 22.1938C114.602 21.9222 114.919 21.5375 115.124 21.0396L115.646 22.5785C115.396 23.3253 114.965 23.8685 114.329 24.2532C113.694 24.6379 112.854 24.8189 111.856 24.8189ZM115.35 24.6379V22.4201L115.146 21.9222V17.9392C115.146 17.2376 114.919 16.6718 114.488 16.2871C114.057 15.9024 113.399 15.6987 112.491 15.6987C111.878 15.6987 111.288 15.7892 110.698 15.9929C110.108 16.174 109.609 16.4455 109.2 16.7624L107.998 14.454C108.633 14.024 109.382 13.6846 110.244 13.4356C111.129 13.1867 112.014 13.0735 112.922 13.0735C114.67 13.0735 116.031 13.4809 116.984 14.2956C117.96 15.1103 118.437 16.4003 118.437 18.1429V24.6605H115.35V24.6379Z" fill="#3A4752"/>
<path d="M125.313 24.8189C124.337 24.8189 123.384 24.7058 122.499 24.4795C121.591 24.2532 120.888 23.959 120.366 23.5969L121.478 21.2206C122 21.5375 122.613 21.809 123.339 22.0127C124.065 22.2164 124.769 22.3296 125.449 22.3296C126.221 22.3296 126.766 22.239 127.083 22.058C127.401 21.8769 127.56 21.628 127.56 21.2885C127.56 21.017 127.446 20.8133 127.197 20.6775C126.947 20.5417 126.63 20.4512 126.198 20.3607C125.79 20.2928 125.336 20.2249 124.837 20.157C124.337 20.0891 123.861 19.9986 123.362 19.8628C122.862 19.7496 122.408 19.5686 122 19.3197C121.591 19.0707 121.251 18.7539 121.001 18.3465C120.752 17.9392 120.638 17.396 120.638 16.7624C120.638 16.0382 120.842 15.4045 121.274 14.8614C121.682 14.3182 122.295 13.8656 123.089 13.5488C123.884 13.232 124.837 13.0735 125.949 13.0735C126.72 13.0735 127.515 13.1641 128.332 13.3225C129.149 13.5035 129.807 13.7298 130.351 14.0693L129.239 16.4229C128.695 16.1061 128.127 15.8798 127.56 15.744C126.993 15.6308 126.448 15.5629 125.926 15.5629C125.177 15.5629 124.655 15.6535 124.315 15.8571C123.974 16.0608 123.815 16.3098 123.815 16.6266C123.815 16.9208 123.929 17.1245 124.179 17.2603C124.428 17.396 124.746 17.5092 125.177 17.5997C125.586 17.6902 126.039 17.7581 126.539 17.826C127.038 17.8939 127.515 17.9844 128.014 18.1202C128.513 18.256 128.967 18.4371 129.375 18.6634C129.784 18.8897 130.102 19.2065 130.374 19.6139C130.624 20.0212 130.76 20.5417 130.76 21.198C130.76 21.8996 130.556 22.5332 130.124 23.0764C129.693 23.6195 129.08 24.0495 128.286 24.3663C127.424 24.6605 126.448 24.8189 125.313 24.8189Z" fill="#3A4752"/>
<path d="M139.701 13.0509C140.609 13.0509 141.426 13.232 142.13 13.5941C142.856 13.9561 143.401 14.4993 143.832 15.2461C144.24 15.9929 144.444 16.9434 144.444 18.0976V24.6379H141.131V18.6181C141.131 17.6902 140.927 17.0113 140.518 16.5813C140.11 16.1513 139.543 15.925 138.816 15.925C138.294 15.925 137.818 16.0382 137.409 16.2645C137.001 16.4908 136.66 16.8303 136.433 17.2829C136.206 17.7355 136.093 18.3239 136.093 19.0255V24.6605H132.757V8.88684H136.07V16.3776L135.321 15.4272C135.73 14.6577 136.32 14.0693 137.092 13.6619C137.863 13.2546 138.726 13.0509 139.701 13.0509Z" fill="#3A4752"/>
<path opacity="0.5" d="M16 32.8868C11.925 32.8868 8.2 31.3618 5.375 28.8618C4.8 28.3368 4.25 27.7868 3.75 27.1868C1.4 24.3868 0 20.7868 0 16.8868C0 12.9868 1.4 9.38684 3.75 6.61184C4.35 5.91184 5 5.23684 5.725 4.63684C8.5 2.28684 12.075 0.886841 16 0.886841C19.925 0.886841 23.5 2.28684 26.275 4.63684C26.875 5.13684 27.425 5.68684 27.95 6.26184C30.425 9.06184 31.95 12.7118 31.975 16.7368H27.95C27.875 10.1868 22.55 4.91184 16 4.91184C9.4 4.91184 4.025 10.2618 4.025 16.8868C4.025 23.4868 9.375 28.8618 16 28.8618V32.8868Z" fill="#2952FF"/>
<path d="M24.0751 16.8868C24.0751 16.8368 24.0751 16.7868 24.0751 16.7368C24 12.3368 20.4 8.81183 16 8.81183C11.55 8.81183 7.92505 12.4118 7.92505 16.8868C7.92505 21.3618 11.55 24.9618 16 24.9618C20.45 24.9618 24.0751 21.3368 24.0751 16.8868ZM11.6 16.8868C11.6 14.4618 13.575 12.4868 16 12.4868C18.375 12.4868 20.325 14.3868 20.4 16.7368C20.4 16.7868 20.4 16.8368 20.4 16.8868C20.4 19.3118 18.425 21.2868 16 21.2868C13.575 21.2868 11.6 19.3118 11.6 16.8868Z" fill="#2952FF"/>
<path d="M32 32.8868H24.4V28.8368H27.975V25.3118H32V32.8868Z" fill="#2952FF"/>
</svg>
